<svg width="203" height="42" viewBox="0 0 203 42" fill="none" xmlns="http://www.w3.org/2000/svg">
<path d="M51.692 32.3392H43.1096V40H34.5272V32.3392H7.33997V24.6208C9.91277 20.512 12.0056 16.6912 13.6184 13.1584C15.2696 9.62559 16.5944 5.97759 17.5928 2.2144H26.7512V3.53919C24.6776 10.528 21.5672 17.5552 17.42 24.6208H34.5272V8.78079H43.1096V24.6208H51.692V32.3392Z" fill="#252424"/>
<path d="M77.1606 40.6912C73.0902 40.6912 69.4998 39.9616 66.3894 38.5024C63.279 37.0432 60.8598 35.008 59.1318 32.3968C57.4038 29.7472 56.5398 26.7136 56.5398 23.296V18.976C56.5398 15.52 57.4038 12.4864 59.1318 9.87519C60.8598 7.22559 63.279 5.17119 66.3894 3.71199C69.4998 2.25279 73.0902 1.52319 77.1606 1.52319C81.1926 1.52319 84.7446 2.25279 87.8166 3.71199C90.927 5.17119 93.327 7.22559 95.0166 9.87519C96.7446 12.4864 97.6086 15.52 97.6086 18.976V23.296C97.6086 26.752 96.7638 29.8048 95.0742 32.4544C93.3846 35.0656 90.9846 37.1008 87.8742 38.56C84.8022 39.9808 81.231 40.6912 77.1606 40.6912ZM77.1606 32.6848C81.0006 32.6848 83.9382 31.8976 85.9734 30.3232C88.0086 28.7488 89.0262 26.464 89.0262 23.4688V18.8608C89.0262 15.904 87.9894 13.6192 85.9158 12.0064C83.8422 10.3552 80.9046 9.52959 77.103 9.52959C73.3014 9.52959 70.3446 10.3552 68.2326 12.0064C66.159 13.6192 65.1222 15.904 65.1222 18.8608V23.4688C65.1222 26.4256 66.159 28.7104 68.2326 30.3232C70.3062 31.8976 73.2822 32.6848 77.1606 32.6848Z" fill="#252424"/>
<path d="M124.242 40.6912C120.171 40.6912 116.581 39.9616 113.471 38.5024C110.36 37.0432 107.941 35.008 106.213 32.3968C104.485 29.7472 103.621 26.7136 103.621 23.296V18.976C103.621 15.52 104.485 12.4864 106.213 9.87519C107.941 7.22559 110.36 5.17119 113.471 3.71199C116.581 2.25279 120.171 1.52319 124.242 1.52319C128.274 1.52319 131.826 2.25279 134.898 3.71199C138.008 5.17119 140.408 7.22559 142.098 9.87519C143.826 12.4864 144.69 15.52 144.69 18.976V23.296C144.69 26.752 143.845 29.8048 142.155 32.4544C140.466 35.0656 138.066 37.1008 134.955 38.56C131.883 39.9808 128.312 40.6912 124.242 40.6912ZM124.242 32.6848C128.082 32.6848 131.019 31.8976 133.055 30.3232C135.09 28.7488 136.107 26.464 136.107 23.4688V18.8608C136.107 15.904 135.071 13.6192 132.997 12.0064C130.923 10.3552 127.986 9.52959 124.184 9.52959C120.383 9.52959 117.426 10.3552 115.314 12.0064C113.24 13.6192 112.203 15.904 112.203 18.8608V23.4688C112.203 26.4256 113.24 28.7104 115.314 30.3232C117.387 31.8976 120.363 32.6848 124.242 32.6848Z" fill="#252424"/>
<path d="M160.552 20.4736C157.019 20.4736 154.197 19.6672 152.085 18.0544C149.973 16.4032 148.917 14.2144 148.917 11.488V10.8544C148.917 8.08959 149.954 5.9008 152.027 4.288C154.139 2.63679 156.981 1.81119 160.552 1.81119C164.123 1.81119 166.926 2.61759 168.961 4.23039C171.035 5.84319 172.072 8.05119 172.072 10.8544V11.488C172.072 14.2144 171.016 16.4032 168.904 18.0544C166.83 19.6672 164.046 20.4736 160.552 20.4736ZM160.494 14.8288C161.838 14.8288 162.894 14.5408 163.662 13.9648C164.469 13.3504 164.872 12.5248 164.872 11.488V10.8544C164.872 9.81759 164.469 9.01119 163.662 8.43519C162.894 7.8208 161.838 7.5136 160.494 7.5136C159.15 7.5136 158.094 7.8208 157.326 8.43519C156.558 9.01119 156.174 9.81759 156.174 10.8544V11.488C156.174 12.4864 156.558 13.2928 157.326 13.9072C158.133 14.5216 159.189 14.8288 160.494 14.8288ZM190.849 40.3456C187.317 40.3456 184.494 39.5392 182.382 37.9264C180.27 36.2752 179.214 34.0864 179.214 31.36V30.7264C179.214 27.9616 180.251 25.7728 182.325 24.16C184.437 22.5088 187.278 21.6832 190.849 21.6832C194.421 21.6832 197.224 22.4896 199.259 24.1024C201.333 25.7152 202.369 27.9232 202.369 30.7264V31.36C202.369 34.0864 201.313 36.2752 199.201 37.9264C197.128 39.5392 194.344 40.3456 190.849 40.3456ZM190.792 34.7008C192.136 34.7008 193.192 34.4128 193.96 33.8368C194.766 33.2224 195.169 32.3968 195.169 31.36V30.7264C195.169 29.6896 194.766 28.8832 193.96 28.3072C193.192 27.6928 192.136 27.3856 190.792 27.3856C189.448 27.3856 188.392 27.6928 187.624 28.3072C186.856 28.8832 186.472 29.6896 186.472 30.7264V31.36C186.472 32.3584 186.856 33.1648 187.624 33.7792C188.43 34.3936 189.486 34.7008 190.792 34.7008ZM188.142 2.2144H196.321V3.53919L163.086 40H154.907V38.848L188.142 2.2144Z" fill="#252424"/>
<path d="M46.1535 32.3392H37.5711V40H28.9887V32.3392H1.80151V24.6208C4.37431 20.512 6.46711 16.6912 8.07991 13.1584C9.73111 9.62559 11.0559 5.97759 12.0543 2.2144H21.2127V3.53919C19.1391 10.528 16.0287 17.5552 11.8815 24.6208H28.9887V8.78079H37.5711V24.6208H46.1535V32.3392Z" fill="#252424"/>
<path d="M71.6222 40.6912C67.5518 40.6912 63.9614 39.9616 60.851 38.5024C57.7406 37.0432 55.3214 35.008 53.5934 32.3968C51.8654 29.7472 51.0014 26.7136 51.0014 23.296V18.976C51.0014 15.52 51.8654 12.4864 53.5934 9.87519C55.3214 7.22559 57.7406 5.17119 60.851 3.71199C63.9614 2.25279 67.5518 1.52319 71.6222 1.52319C75.6542 1.52319 79.2062 2.25279 82.2782 3.71199C85.3886 5.17119 87.7886 7.22559 89.4782 9.87519C91.2062 12.4864 92.0702 15.52 92.0702 18.976V23.296C92.0702 26.752 91.2254 29.8048 89.5358 32.4544C87.8462 35.0656 85.4462 37.1008 82.3358 38.56C79.2638 39.9808 75.6926 40.6912 71.6222 40.6912ZM71.6222 32.6848C75.4622 32.6848 78.3998 31.8976 80.435 30.3232C82.4702 28.7488 83.4878 26.464 83.4878 23.4688V18.8608C83.4878 15.904 82.451 13.6192 80.3774 12.0064C78.3038 10.3552 75.3662 9.52959 71.5646 9.52959C67.763 9.52959 64.8062 10.3552 62.6942 12.0064C60.6206 13.6192 59.5838 15.904 59.5838 18.8608V23.4688C59.5838 26.4256 60.6206 28.7104 62.6942 30.3232C64.7678 31.8976 67.7438 32.6848 71.6222 32.6848Z" fill="#252424"/>
<path d="M118.703 40.6912C114.633 40.6912 111.043 39.9616 107.932 38.5024C104.822 37.0432 102.403 35.008 100.675 32.3968C98.9466 29.7472 98.0826 26.7136 98.0826 23.296V18.976C98.0826 15.52 98.9466 12.4864 100.675 9.87519C102.403 7.22559 104.822 5.17119 107.932 3.71199C111.043 2.25279 114.633 1.52319 118.703 1.52319C122.735 1.52319 126.287 2.25279 129.359 3.71199C132.47 5.17119 134.87 7.22559 136.559 9.87519C138.287 12.4864 139.151 15.52 139.151 18.976V23.296C139.151 26.752 138.307 29.8048 136.617 32.4544C134.927 35.0656 132.527 37.1008 129.417 38.56C126.345 39.9808 122.774 40.6912 118.703 40.6912ZM118.703 32.6848C122.543 32.6848 125.481 31.8976 127.516 30.3232C129.551 28.7488 130.569 26.464 130.569 23.4688V18.8608C130.569 15.904 129.532 13.6192 127.459 12.0064C125.385 10.3552 122.447 9.52959 118.646 9.52959C114.844 9.52959 111.887 10.3552 109.775 12.0064C107.702 13.6192 106.665 15.904 106.665 18.8608V23.4688C106.665 26.4256 107.702 28.7104 109.775 30.3232C111.849 31.8976 114.825 32.6848 118.703 32.6848Z" fill="#252424"/>
<path d="M155.013 20.4736C151.481 20.4736 148.658 19.6672 146.546 18.0544C144.434 16.4032 143.378 14.2144 143.378 11.488V10.8544C143.378 8.08959 144.415 5.9008 146.489 4.288C148.601 2.63679 151.442 1.81119 155.013 1.81119C158.585 1.81119 161.388 2.61759 163.423 4.23039C165.497 5.84319 166.533 8.05119 166.533 10.8544V11.488C166.533 14.2144 165.477 16.4032 163.365 18.0544C161.292 19.6672 158.508 20.4736 155.013 20.4736ZM154.956 14.8288C156.3 14.8288 157.356 14.5408 158.124 13.9648C158.93 13.3504 159.333 12.5248 159.333 11.488V10.8544C159.333 9.81759 158.93 9.01119 158.124 8.43519C157.356 7.8208 156.3 7.5136 154.956 7.5136C153.612 7.5136 152.556 7.8208 151.788 8.43519C151.02 9.01119 150.636 9.81759 150.636 10.8544V11.488C150.636 12.4864 151.02 13.2928 151.788 13.9072C152.594 14.5216 153.65 14.8288 154.956 14.8288ZM185.311 40.3456C181.778 40.3456 178.956 39.5392 176.844 37.9264C174.732 36.2752 173.676 34.0864 173.676 31.36V30.7264C173.676 27.9616 174.713 25.7728 176.786 24.16C178.898 22.5088 181.74 21.6832 185.311 21.6832C188.882 21.6832 191.685 22.4896 193.721 24.1024C195.794 25.7152 196.831 27.9232 196.831 30.7264V31.36C196.831 34.0864 195.775 36.2752 193.663 37.9264C191.589 39.5392 188.805 40.3456 185.311 40.3456ZM185.253 34.7008C186.597 34.7008 187.653 34.4128 188.421 33.8368C189.228 33.2224 189.631 32.3968 189.631 31.36V30.7264C189.631 29.6896 189.228 28.8832 188.421 28.3072C187.653 27.6928 186.597 27.3856 185.253 27.3856C183.909 27.3856 182.853 27.6928 182.085 28.3072C181.317 28.8832 180.933 29.6896 180.933 30.7264V31.36C180.933 32.3584 181.317 33.1648 182.085 33.7792C182.892 34.3936 183.948 34.7008 185.253 34.7008ZM182.604 2.2144H190.783V3.53919L157.548 40H149.369V38.848L182.604 2.2144Z" fill="#252424"/>
<path fill-rule="evenodd" clip-rule="evenodd" d="M47.2612 33.4469H38.6788V41.1077H27.881V33.4469H0.693848V24.3026L0.862712 24.033C3.41581 19.9556 5.48382 16.1779 7.07229 12.6984L7.07641 12.6894C8.69982 9.21602 10.0022 5.62994 10.9837 1.93037L11.2022 1.10673H22.3204V3.70008L22.2747 3.8543C20.3366 10.3864 17.5086 16.9394 13.7974 23.5131H27.881V7.67313H38.6788V23.5131H47.2612V33.4469ZM37.5711 24.6208V8.78082H28.9887V24.6208H11.8815C12.0983 24.2515 12.3123 23.8823 12.5234 23.5131C16.3511 16.8207 19.2475 10.1627 21.2127 3.53922V2.21442H12.0543C11.0559 5.97762 9.73114 9.62562 8.07994 13.1584C6.46714 16.6912 4.37434 20.512 1.80154 24.6208V32.3392H28.9887V40H37.5711V32.3392H46.1535V24.6208H37.5711ZM52.6696 33.0081L52.6655 33.0019C50.8107 30.1578 49.8937 26.9105 49.8937 23.296V18.976C49.8937 15.3274 50.8087 12.0775 52.6676 9.26707C54.5176 6.43165 57.1015 4.24751 60.3805 2.7092C63.6629 1.16933 67.4189 0.415527 71.6222 0.415527C75.7875 0.415527 79.5062 1.16948 82.7513 2.71042C86.0289 4.24859 88.5949 6.43338 90.407 9.27161C92.2639 12.081 93.1779 15.3294 93.1779 18.976V23.296C93.1779 26.9412 92.284 30.2049 90.4697 33.05L90.4658 33.0562C88.652 35.8593 86.084 38.0251 82.8062 39.5628L82.8008 39.5654C79.5565 41.0659 75.8212 41.7989 71.6222 41.7989C67.4189 41.7989 63.6629 41.0451 60.3805 39.5052C57.1044 37.9683 54.5207 35.8052 52.6696 33.0081ZM82.2782 3.71202C79.2062 2.25282 75.6542 1.52322 71.6222 1.52322C67.5518 1.52322 63.9614 2.25282 60.851 3.71202C57.7406 5.17122 55.3214 7.22562 53.5934 9.87522C51.8654 12.4864 51.0014 15.52 51.0014 18.976V23.296C51.0014 26.7136 51.8654 29.7472 53.5934 32.3968C55.3214 35.008 57.7406 37.0432 60.851 38.5024C63.9614 39.9616 67.5518 40.6912 71.6222 40.6912C75.6926 40.6912 79.2638 39.9808 82.3358 38.56C85.4462 37.1008 87.8462 35.0656 89.5358 32.4544C91.2254 29.8048 92.0702 26.752 92.0702 23.296V18.976C92.0702 15.52 91.2062 12.4864 89.4782 9.87522C87.7886 7.22562 85.3886 5.17122 82.2782 3.71202ZM79.6874 12.8729C77.8792 11.4331 75.2215 10.6373 71.5646 10.6373C67.9094 10.6373 65.2268 11.4324 63.3764 12.8791L63.3742 12.8808C61.6068 14.2554 60.6915 16.197 60.6915 18.8608V23.4688C60.6915 26.1301 61.605 28.0704 63.3691 29.4448C65.176 30.8144 67.8761 31.5771 71.6222 31.5771C75.3323 31.5771 77.991 30.8134 79.7572 29.4471C81.4747 28.1185 82.3801 26.1847 82.3801 23.4688V18.8608C82.3801 16.197 81.4647 14.2554 79.6973 12.8808L79.6874 12.8729ZM62.6942 30.3232C60.6206 28.7104 59.5838 26.4256 59.5838 23.4688V18.8608C59.5838 15.904 60.6206 13.6192 62.6942 12.0064C64.8062 10.3552 67.763 9.52962 71.5646 9.52962C75.3662 9.52962 78.3038 10.3552 80.3774 12.0064C82.451 13.6192 83.4878 15.904 83.4878 18.8608V23.4688C83.4878 26.464 82.4702 28.7488 80.435 30.3232C78.3998 31.8976 75.4622 32.6848 71.6222 32.6848C67.7438 32.6848 64.7678 31.8976 62.6942 30.3232ZM99.7509 33.0081L99.7468 33.0019C97.892 30.1578 96.9749 26.9105 96.9749 23.296V18.976C96.9749 15.3274 97.8899 12.0775 99.7488 9.26707C101.599 6.43165 104.183 4.24751 107.462 2.7092C110.744 1.16933 114.5 0.415527 118.703 0.415527C122.869 0.415527 126.587 1.16948 129.833 2.71042C133.11 4.24865 135.676 6.43356 137.488 9.27194C139.345 12.0812 140.259 15.3295 140.259 18.976V23.296C140.259 26.9412 139.365 30.2049 137.551 33.05L137.547 33.0562C135.733 35.8593 133.165 38.0251 129.887 39.5628L129.882 39.5654C126.638 41.0659 122.902 41.7989 118.703 41.7989C114.5 41.7989 110.744 41.0451 107.462 39.5052C104.186 37.9683 101.602 35.8052 99.7509 33.0081ZM136.559 9.87522C134.87 7.22562 132.47 5.17122 129.359 3.71202C126.287 2.25282 122.735 1.52322 118.703 1.52322C114.633 1.52322 111.043 2.25282 107.932 3.71202C104.822 5.17122 102.403 7.22562 100.675 9.87522C98.9466 12.4864 98.0826 15.52 98.0826 18.976V23.296C98.0826 26.7136 98.9466 29.7472 100.675 32.3968C102.403 35.008 104.822 37.0432 107.932 38.5024C111.043 39.9616 114.633 40.6912 118.703 40.6912C122.774 40.6912 126.345 39.9808 129.417 38.56C132.527 37.1008 134.927 35.0656 136.617 32.4544C138.307 29.8048 139.151 26.752 139.151 23.296V18.976C139.151 15.52 138.287 12.4864 136.559 9.87522ZM126.779 12.8808L126.769 12.873C124.96 11.4331 122.303 10.6373 118.646 10.6373C114.991 10.6373 112.308 11.4324 110.458 12.8791L110.455 12.8808C108.688 14.2554 107.773 16.197 107.773 18.8608V23.4688C107.773 26.1301 108.686 28.0704 110.45 29.4448C112.257 30.8144 114.957 31.5771 118.703 31.5771C122.414 31.5771 125.072 30.8134 126.838 29.4471C128.556 28.1185 129.461 26.1847 129.461 23.4688V18.8608C129.461 16.197 128.546 14.2554 126.779 12.8808ZM109.775 30.3232C107.702 28.7104 106.665 26.4256 106.665 23.4688V18.8608C106.665 15.904 107.702 13.6192 109.775 12.0064C111.887 10.3552 114.844 9.52962 118.646 9.52962C122.447 9.52962 125.385 10.3552 127.459 12.0064C129.532 13.6192 130.569 15.904 130.569 18.8608V23.4688C130.569 26.464 129.551 28.7488 127.516 30.3232C125.481 31.8976 122.543 32.6848 118.703 32.6848C114.825 32.6848 111.849 31.8976 109.775 30.3232ZM145.874 18.9348L145.864 18.9271C143.478 17.0618 142.271 14.5485 142.271 11.488V10.8544C142.271 7.76909 143.449 5.24956 145.808 3.41452C148.17 1.56781 151.278 0.703526 155.013 0.703526C158.739 0.703526 161.814 1.54415 164.107 3.35885C166.468 5.19705 167.641 7.73749 167.641 10.8544V11.488C167.641 14.5485 166.434 17.0618 164.048 18.9271L164.046 18.9288C161.722 20.7361 158.673 21.5813 155.013 21.5813C151.317 21.5813 148.234 20.737 145.874 18.9348ZM163.423 4.23042C161.388 2.61762 158.585 1.81122 155.013 1.81122C151.442 1.81122 148.601 2.63682 146.489 4.28802C144.415 5.90082 143.378 8.08962 143.378 10.8544V11.488C143.378 14.2144 144.434 16.4032 146.546 18.0544C148.658 19.6672 151.481 20.4736 155.013 20.4736C158.508 20.4736 161.292 19.6672 163.365 18.0544C165.477 16.4032 166.533 14.2144 166.533 11.488V10.8544C166.533 8.05122 165.497 5.84322 163.423 4.23042ZM157.455 9.31904L157.432 9.30018C156.921 8.89184 156.14 8.62131 154.956 8.62131C153.772 8.62131 152.99 8.89184 152.48 9.30018L152.466 9.31099L152.452 9.32137C151.988 9.6695 151.744 10.1339 151.744 10.8544V11.488C151.744 12.1513 151.976 12.6351 152.47 13.0341C153.033 13.4592 153.829 13.7211 154.956 13.7211C156.151 13.7211 156.943 13.4645 157.456 13.0813C157.978 12.6823 158.226 12.1869 158.226 11.488V10.8544C158.226 10.1558 157.98 9.69356 157.48 9.33659L157.455 9.31904ZM158.124 13.9648C157.356 14.5408 156.3 14.8288 154.956 14.8288C153.65 14.8288 152.594 14.5216 151.788 13.9072C151.02 13.2928 150.636 12.4864 150.636 11.488V10.8544C150.636 9.81762 151.02 9.01122 151.788 8.43522C152.556 7.82082 153.612 7.51362 154.956 7.51362C156.3 7.51362 157.356 7.82082 158.124 8.43522C158.93 9.01122 159.333 9.81762 159.333 10.8544V11.488C159.333 12.5248 158.93 13.3504 158.124 13.9648ZM176.172 38.8068L176.162 38.7991C173.776 36.9338 172.568 34.4205 172.568 31.36V30.7264C172.568 27.6411 173.746 25.1216 176.105 23.2865C178.468 21.4398 181.575 20.5755 185.311 20.5755C189.037 20.5755 192.112 21.4161 194.404 23.2309C196.766 25.0691 197.939 27.6095 197.939 30.7264V31.36C197.939 34.4205 196.731 36.9338 194.345 38.7991L194.343 38.8008C192.019 40.6081 188.971 41.4533 185.311 41.4533C181.615 41.4533 178.532 40.609 176.172 38.8068ZM193.721 24.1024C191.685 22.4896 188.882 21.6832 185.311 21.6832C181.74 21.6832 178.898 22.5088 176.786 24.16C174.713 25.7728 173.676 27.9616 173.676 30.7264V31.36C173.676 34.0864 174.732 36.2752 176.844 37.9264C178.956 39.5392 181.778 40.3456 185.311 40.3456C188.805 40.3456 191.589 39.5392 193.663 37.9264C195.775 36.2752 196.831 34.0864 196.831 31.36V30.7264C196.831 27.9232 195.794 25.7152 193.721 24.1024ZM187.753 29.191L187.729 29.1722C187.219 28.7638 186.437 28.4933 185.253 28.4933C184.07 28.4933 183.288 28.7638 182.777 29.1722L182.764 29.183L182.75 29.1934C182.286 29.5415 182.041 30.0059 182.041 30.7264V31.36C182.041 32.0233 182.274 32.5071 182.767 32.906C183.331 33.3312 184.127 33.5931 185.253 33.5931C186.449 33.5931 187.24 33.3365 187.753 32.9532C188.275 32.5543 188.523 32.0589 188.523 31.36V30.7264C188.523 30.0278 188.277 29.5656 187.778 29.2086L187.753 29.191ZM188.421 33.8368C187.653 34.4128 186.597 34.7008 185.253 34.7008C183.948 34.7008 182.892 34.3936 182.085 33.7792C181.317 33.1648 180.933 32.3584 180.933 31.36V30.7264C180.933 29.6896 181.317 28.8832 182.085 28.3072C182.853 27.6928 183.909 27.3856 185.253 27.3856C186.597 27.3856 187.653 27.6928 188.421 28.3072C189.228 28.8832 189.631 29.6896 189.631 30.7264V31.36C189.631 32.3968 189.228 33.2224 188.421 33.8368ZM182.113 1.10673H191.891V3.96831L158.037 41.1077H148.261V38.4204L182.113 1.10673ZM149.369 38.848L182.604 2.21442H190.783V3.53922L157.548 40H149.369V38.848Z" fill="white"/>
</svg>
