<svg width="124" height="28" viewBox="0 0 124 28" fill="none" xmlns="http://www.w3.org/2000/svg">
<path fill-rule="evenodd" clip-rule="evenodd" d="M30.2185 21.5119H24.9155V26.2454H18.2437V21.5119H1.44513V15.8618L1.54947 15.6952C3.12699 13.1758 4.40479 10.8416 5.38628 8.69171L5.38882 8.68614C6.39191 6.54 7.19661 4.32421 7.80308 2.03829L7.9381 1.52938H14.8079V3.13178L14.7796 3.22707C13.5821 7.26313 11.8347 11.3122 9.54165 15.374H18.2437V5.58666H24.9155V15.374H30.2185V21.5119ZM24.2311 16.0584V6.27109H18.9282V16.0584H8.35785C8.4918 15.8302 8.624 15.6021 8.75444 15.374C11.1195 11.2388 12.9092 7.12494 14.1235 3.03238V2.21381H8.46462C7.84772 4.53904 7.02915 6.79308 6.00889 8.97595C5.01237 11.1588 3.71925 13.5196 2.12956 16.0584V20.8275H18.9282V25.561H24.2311V20.8275H29.534V16.0584H24.2311ZM33.5603 21.2408L33.5577 21.237C32.4116 19.4796 31.845 17.4731 31.845 15.2398V12.5706C31.845 10.3162 32.4104 8.30804 33.559 6.57154C34.7021 4.81957 36.2986 3.47002 38.3247 2.51952C40.3528 1.56806 42.6736 1.10229 45.2708 1.10229C47.8444 1.10229 50.1422 1.56815 52.1473 2.52028C54.1725 3.47069 55.758 4.82065 56.8777 6.57434C58.025 8.3102 58.5897 10.3174 58.5897 12.5706V15.2398C58.5897 17.4921 58.0374 19.5087 56.9164 21.2667L56.914 21.2705C55.7932 23.0025 54.2065 24.3407 52.1812 25.2909L52.1779 25.2925C50.1733 26.2196 47.8653 26.6725 45.2708 26.6725C42.6736 26.6725 40.3528 26.2067 38.3247 25.2553C36.3005 24.3056 34.704 22.9691 33.5603 21.2408ZM51.855 3.13915C49.9568 2.23753 47.7621 1.78672 45.2708 1.78672C42.7557 1.78672 40.5373 2.23753 38.6154 3.13915C36.6935 4.04077 35.1987 5.31016 34.131 6.94731C33.0633 8.56073 32.5295 10.4352 32.5295 12.5706V15.2398C32.5295 17.3515 33.0633 19.2259 34.131 20.8631C35.1987 22.4765 36.6935 23.734 38.6154 24.6357C40.5373 25.5373 42.7557 25.9881 45.2708 25.9881C47.7858 25.9881 49.9924 25.5491 51.8906 24.6712C53.8124 23.7696 55.2954 22.5121 56.3393 20.8987C57.3833 19.2615 57.9053 17.3752 57.9053 15.2398V12.5706C57.9053 10.4352 57.3715 8.56073 56.3037 6.94731C55.2598 5.31016 53.7768 4.04077 51.855 3.13915ZM50.2541 8.79956C49.1369 7.90992 47.4948 7.41819 45.2352 7.41819C42.9767 7.41819 41.3191 7.90949 40.1758 8.80334L40.1745 8.8044C39.0824 9.65378 38.5168 10.8534 38.5168 12.4994V15.3466C38.5168 16.991 39.0813 18.1899 40.1713 19.0391C41.2878 19.8853 42.9561 20.3566 45.2708 20.3566C47.5632 20.3566 49.206 19.8847 50.2973 19.0405C51.3585 18.2196 51.9179 17.0247 51.9179 15.3466V12.4994C51.9179 10.8534 51.3523 9.65378 50.2603 8.8044L50.2541 8.79956ZM39.7543 19.5818C38.473 18.5853 37.8324 17.1736 37.8324 15.3466V12.4994C37.8324 10.6724 38.473 9.26067 39.7543 8.26415C41.0593 7.24389 42.8862 6.73377 45.2352 6.73377C47.5841 6.73377 49.3992 7.24389 50.6805 8.26415C51.9617 9.26067 52.6024 10.6724 52.6024 12.4994V15.3466C52.6024 17.1973 51.9736 18.609 50.7161 19.5818C49.4586 20.5546 47.6434 21.041 45.2708 21.041C42.8744 21.041 41.0355 20.5546 39.7543 19.5818ZM62.6511 21.2408L62.6486 21.237C61.5025 19.4796 60.9359 17.4731 60.9359 15.2398V12.5706C60.9359 10.3162 61.5012 8.30804 62.6498 6.57154C63.7929 4.81957 65.3895 3.47002 67.4156 2.51952C69.4437 1.56806 71.7645 1.10229 74.3616 1.10229C76.9353 1.10229 79.233 1.56815 81.2381 2.52028C83.2634 3.47073 84.849 4.82075 85.9686 6.57455C87.1159 8.31036 87.6806 10.3175 87.6806 12.5706V15.2398C87.6806 17.4921 87.1283 19.5087 86.0073 21.2667L86.0048 21.2705C84.8841 23.0025 83.2974 24.3407 81.2721 25.2909L81.2687 25.2925C79.2641 26.2196 76.9561 26.6725 74.3616 26.6725C71.7645 26.6725 69.4437 26.2067 67.4156 25.2553C65.3913 24.3056 63.7948 22.9691 62.6511 21.2408ZM85.3946 6.94731C84.3506 5.31016 82.8677 4.04077 80.9458 3.13915C79.0477 2.23753 76.8529 1.78672 74.3616 1.78672C71.8466 1.78672 69.6281 2.23753 67.7062 3.13915C65.7844 4.04077 64.2896 5.31016 63.2219 6.94731C62.1542 8.56073 61.6203 10.4352 61.6203 12.5706V15.2398C61.6203 17.3515 62.1542 19.2259 63.2219 20.8631C64.2896 22.4765 65.7844 23.734 67.7062 24.6357C69.6281 25.5373 71.8466 25.9881 74.3616 25.9881C76.8767 25.9881 79.0833 25.5491 80.9814 24.6712C82.9033 23.7696 84.3862 22.5121 85.4302 20.8987C86.4742 19.2615 86.9962 17.3752 86.9962 15.2398V12.5706C86.9962 10.4352 86.4623 8.56073 85.3946 6.94731ZM79.3511 8.8044L79.345 8.7996C78.2278 7.90992 76.5856 7.41819 74.326 7.41819C72.0675 7.41819 70.41 7.90949 69.2667 8.80334L69.2653 8.8044C68.1733 9.65378 67.6077 10.8534 67.6077 12.4994V15.3466C67.6077 16.991 68.1722 18.1899 69.2621 19.0391C70.3786 19.8853 72.047 20.3566 74.3616 20.3566C76.6541 20.3566 78.2968 19.8847 79.3881 19.0405C80.4494 18.2196 81.0088 17.0247 81.0088 15.3466V12.4994C81.0088 10.8534 80.4432 9.65378 79.3511 8.8044ZM68.8451 19.5818C67.5639 18.5853 66.9233 17.1736 66.9233 15.3466V12.4994C66.9233 10.6724 67.5639 9.26067 68.8451 8.26415C70.1501 7.24389 71.9771 6.73377 74.326 6.73377C76.675 6.73377 78.4901 7.24389 79.7713 8.26415C81.0526 9.26067 81.6932 10.6724 81.6932 12.4994V15.3466C81.6932 17.1973 81.0645 18.609 79.8069 19.5818C78.5494 20.5546 76.7343 21.041 74.3616 21.041C71.9652 21.041 70.1264 20.5546 68.8451 19.5818ZM91.1499 12.5451L91.1437 12.5404C89.6696 11.3878 88.9234 9.83486 88.9234 7.94383V7.55234C88.9234 5.64596 89.6514 4.08918 91.1089 2.95533C92.5687 1.81427 94.4887 1.28025 96.7971 1.28025C99.0993 1.28025 100.999 1.79965 102.416 2.92093C103.875 4.05673 104.6 5.62643 104.6 7.55234V7.94383C104.6 9.83486 103.853 11.3878 102.379 12.5403L102.378 12.5414C100.942 13.6581 99.0583 14.1803 96.7971 14.1803C94.5134 14.1803 92.6082 13.6587 91.1499 12.5451ZM101.993 3.45946C100.736 2.46294 99.0037 1.96467 96.7971 1.96467C94.5905 1.96467 92.8347 2.4748 91.5297 3.49506C90.2485 4.49158 89.6079 5.84401 89.6079 7.55234V7.94383C89.6079 9.62844 90.2603 10.9809 91.5653 12.0011C92.8703 12.9977 94.6142 13.4959 96.7971 13.4959C98.9562 13.4959 100.676 12.9977 101.958 12.0011C103.263 10.9809 103.915 9.62844 103.915 7.94383V7.55234C103.915 5.82028 103.275 4.45599 101.993 3.45946ZM98.306 6.60365L98.2914 6.592C97.976 6.33969 97.493 6.17254 96.7615 6.17254C96.03 6.17254 95.547 6.33969 95.2316 6.592L95.2232 6.59868L95.2147 6.60509C94.9279 6.8202 94.7767 7.10715 94.7767 7.55234V7.94383C94.7767 8.35367 94.9203 8.65261 95.2253 8.89911C95.5735 9.16182 96.0655 9.32364 96.7615 9.32364C97.5 9.32364 97.9891 9.1651 98.3061 8.9283C98.6287 8.68179 98.7819 8.37567 98.7819 7.94383V7.55234C98.7819 7.12069 98.6299 6.83506 98.3212 6.61449L98.306 6.60365ZM98.719 9.47422C98.2444 9.83012 97.5919 10.0081 96.7615 10.0081C95.9548 10.0081 95.3023 9.81826 94.804 9.43863C94.3295 9.059 94.0922 8.56073 94.0922 7.94383V7.55234C94.0922 6.91172 94.3295 6.41345 94.804 6.05755C95.2786 5.67792 95.9311 5.48811 96.7615 5.48811C97.5919 5.48811 98.2444 5.67792 98.719 6.05755C99.2172 6.41345 99.4664 6.91172 99.4664 7.55234V7.94383C99.4664 8.58446 99.2172 9.09459 98.719 9.47422ZM109.87 24.8237L109.864 24.819C108.39 23.6664 107.644 22.1135 107.644 20.2225V19.831C107.644 17.9246 108.372 16.3678 109.829 15.234C111.289 14.0929 113.209 13.5589 115.518 13.5589C117.82 13.5589 119.72 14.0783 121.136 15.1996C122.595 16.3354 123.32 17.9051 123.32 19.831V20.2225C123.32 22.1135 122.574 23.6664 121.1 24.819L121.098 24.82C119.663 25.9367 117.779 26.459 115.518 26.459C113.234 26.459 111.329 25.9373 109.87 24.8237ZM120.714 15.7381C119.456 14.7416 117.724 14.2433 115.518 14.2433C113.311 14.2433 111.555 14.7534 110.25 15.7737C108.969 16.7702 108.328 18.1226 108.328 19.831V20.2225C108.328 21.9071 108.981 23.2595 110.286 24.2798C111.591 25.2763 113.335 25.7745 115.518 25.7745C117.677 25.7745 119.397 25.2763 120.678 24.2798C121.983 23.2595 122.636 21.9071 122.636 20.2225V19.831C122.636 18.0989 121.995 16.7346 120.714 15.7381ZM117.026 18.8823L117.012 18.8706C116.696 18.6183 116.214 18.4512 115.482 18.4512C114.75 18.4512 114.267 18.6183 113.952 18.8706L113.944 18.8773L113.935 18.8837C113.648 19.0988 113.497 19.3858 113.497 19.831V20.2225C113.497 20.6323 113.641 20.9312 113.946 21.1777C114.294 21.4405 114.786 21.6023 115.482 21.6023C116.22 21.6023 116.71 21.4437 117.027 21.2069C117.349 20.9604 117.502 20.6543 117.502 20.2225V19.831C117.502 19.3993 117.35 19.1137 117.042 18.8931L117.026 18.8823ZM117.439 21.7528C116.965 22.1088 116.312 22.2867 115.482 22.2867C114.675 22.2867 114.023 22.0969 113.525 21.7173C113.05 21.3376 112.813 20.8394 112.813 20.2225V19.831C112.813 19.1904 113.05 18.6921 113.525 18.3362C113.999 17.9566 114.652 17.7667 115.482 17.7667C116.312 17.7667 116.965 17.9566 117.439 18.3362C117.938 18.6921 118.187 19.1904 118.187 19.831V20.2225C118.187 20.8631 117.938 21.3732 117.439 21.7528ZM113.542 1.52938H119.583V3.29751L98.6653 26.2454H92.6248V24.585L113.542 1.52938ZM93.3092 24.8492L113.845 2.21381H118.899V3.03238L98.3631 25.561H93.3092V24.8492Z" fill="white" stroke="#41C53C"/>
</svg>
