<svg width="147" height="71" viewBox="0 0 147 71" fill="none" xmlns="http://www.w3.org/2000/svg">
<path d="M44.6932 17.9371V25.5827C39.5583 30.8308 35.5562 35.909 32.6867 40.8173C29.855 45.7256 28.4391 50.011 28.4391 53.6733V55.0892H18.9812V53.6733C18.9812 49.8222 20.3215 45.4613 23.0022 40.5908C25.7207 35.6825 29.5529 30.6798 34.499 25.5827H8.39056V17.9371H44.6932Z" fill="#252424"/>
<path d="M69.5375 55.7688C65.5353 55.7688 62.0051 55.0514 58.9469 53.6167C55.8886 52.182 53.51 50.1809 51.811 47.6135C50.1119 45.0083 49.2624 42.0255 49.2624 38.6652V34.4177C49.2624 31.0196 50.1119 28.0368 51.811 25.4694C53.51 22.8642 55.8886 20.8443 58.9469 19.4095C62.0051 17.9748 65.5353 17.2574 69.5375 17.2574C73.5019 17.2574 76.9944 17.9748 80.0149 19.4095C83.0731 20.8443 85.4329 22.8642 87.0941 25.4694C88.7932 28.0368 89.6427 31.0196 89.6427 34.4177V38.6652C89.6427 42.0633 88.8121 45.0649 87.1508 47.6701C85.4895 50.2375 83.1297 52.2386 80.0715 53.6733C77.051 55.0703 73.5397 55.7688 69.5375 55.7688ZM69.5375 47.8966C73.3131 47.8966 76.2015 47.1226 78.2026 45.5746C80.2036 44.0266 81.2042 41.7801 81.2042 38.8351V34.3044C81.2042 31.3972 80.1848 29.1507 78.1459 27.5649C76.1071 25.9414 73.2187 25.1296 69.4809 25.1296C65.743 25.1296 62.8358 25.9414 60.7592 27.5649C58.7203 29.1507 57.7009 31.3972 57.7009 34.3044V38.8351C57.7009 41.7424 58.7203 43.9889 60.7592 45.5746C62.798 47.1226 65.7241 47.8966 69.5375 47.8966Z" fill="#252424"/>
<path d="M105.239 35.8901C101.765 35.8901 98.9902 35.0973 96.9136 33.5115C94.837 31.888 93.7987 29.7359 93.7987 27.0552V26.4322C93.7987 23.7138 94.8181 21.5617 96.8569 19.9759C98.9335 18.3524 101.727 17.5406 105.239 17.5406C108.75 17.5406 111.506 18.3335 113.507 19.9193C115.546 21.505 116.566 23.676 116.566 26.4322V27.0552C116.566 29.7359 115.527 31.888 113.451 33.5115C111.412 35.0973 108.675 35.8901 105.239 35.8901ZM105.182 30.34C106.504 30.34 107.542 30.0568 108.297 29.4905C109.09 28.8864 109.486 28.0746 109.486 27.0552V26.4322C109.486 25.4128 109.09 24.6199 108.297 24.0536C107.542 23.4495 106.504 23.1474 105.182 23.1474C103.861 23.1474 102.822 23.4495 102.067 24.0536C101.312 24.6199 100.935 25.4128 100.935 26.4322V27.0552C100.935 28.0368 101.312 28.8297 102.067 29.4338C102.86 30.0379 103.898 30.34 105.182 30.34ZM135.028 55.429C131.555 55.429 128.78 54.6361 126.703 53.0503C124.627 51.4268 123.588 49.2747 123.588 46.594V45.9711C123.588 43.2526 124.608 41.1005 126.647 39.5147C128.723 37.8912 131.517 37.0795 135.028 37.0795C138.54 37.0795 141.296 37.8723 143.297 39.4581C145.336 41.0439 146.355 43.2148 146.355 45.9711V46.594C146.355 49.2747 145.317 51.4268 143.24 53.0503C141.202 54.6361 138.464 55.429 135.028 55.429ZM134.972 49.8788C136.293 49.8788 137.332 49.5956 138.087 49.0293C138.88 48.4252 139.276 47.6134 139.276 46.594V45.9711C139.276 44.9516 138.88 44.1588 138.087 43.5924C137.332 42.9883 136.293 42.6863 134.972 42.6863C133.65 42.6863 132.612 42.9883 131.857 43.5924C131.102 44.1588 130.724 44.9516 130.724 45.9711V46.594C130.724 47.5757 131.102 48.3686 131.857 48.9727C132.65 49.5768 133.688 49.8788 134.972 49.8788ZM132.367 17.9371H140.409V19.2396L107.731 55.0892H99.6886V53.9565L132.367 17.9371Z" fill="#252424"/>
<path d="M39.7476 16.8478V16.3478H39.2476H2.94501H2.44501V16.8478V24.4935V24.9935H2.94501H27.8809C23.3021 29.8226 19.7122 34.5776 17.1193 39.2593L17.1186 39.2605C14.4142 44.1742 13.0356 48.6195 13.0356 52.5841V53.9999V54.4999H13.5356H22.9936H23.4936V53.9999V52.5841C23.4936 49.0452 24.8642 44.8491 27.6735 39.9793C30.5172 35.1152 34.4914 30.0696 39.605 24.8431L39.7476 24.6974V24.4935V16.8478ZM45.9466 46.7974L45.9484 46.8002C47.703 49.4515 50.1559 51.5103 53.289 52.9801C56.4248 54.4513 60.0298 55.1796 64.0919 55.1796C68.1521 55.1796 71.7376 54.4708 74.8358 53.0379L74.8383 53.0368C77.9721 51.5666 80.4077 49.5065 82.125 46.8525L82.1268 46.8497C83.8443 44.1563 84.6971 41.0594 84.6971 37.576V33.3284C84.6971 29.8443 83.825 26.7645 82.0678 24.1076C80.3513 21.4174 77.9167 19.3387 74.7832 17.8684C71.6845 16.3966 68.1167 15.6682 64.0919 15.6682C60.0298 15.6682 56.4248 16.3965 53.289 17.8677C50.1546 19.3381 47.7016 21.4166 45.9475 24.1056C44.1894 26.763 43.3169 29.8434 43.3169 33.3284V37.576C43.3169 41.0251 44.1903 44.1044 45.9466 46.7974ZM72.3889 26.8668L72.3934 26.8703C74.294 28.3486 75.2586 30.4401 75.2586 33.2151V37.7459C75.2586 40.5648 74.3087 42.6528 72.4511 44.0899C70.5714 45.544 67.8089 46.3074 64.0919 46.3074C60.3382 46.3074 57.5367 45.5444 55.6183 44.0889C53.7192 42.6107 52.7554 40.5198 52.7554 37.7459V33.2151C52.7554 30.4401 53.72 28.3486 55.6206 26.8703L55.6216 26.8696C57.5801 25.3384 60.3635 24.5404 64.0353 24.5404C67.7079 24.5404 70.4699 25.3387 72.3889 26.8668ZM91.16 32.8162L91.1645 32.8197C93.3531 34.4909 96.246 35.3009 99.7933 35.3009C103.304 35.3009 106.16 34.4905 108.312 32.8169L108.313 32.8162C110.513 31.096 111.62 28.7974 111.62 25.966V25.343C111.62 22.4453 110.539 20.1242 108.371 18.4368C106.253 16.7597 103.374 15.9514 99.7933 15.9514C96.2076 15.9514 93.2937 16.7806 91.1039 18.4924C88.9364 20.1785 87.8531 22.4798 87.8531 25.343V25.966C87.8531 28.7974 88.9599 31.096 91.16 32.8162ZM102.539 23.3548L102.55 23.3633L102.561 23.3712C103.215 23.8387 103.541 24.4762 103.541 25.343V25.966C103.541 26.8328 103.214 27.4954 102.55 28.0023C101.91 28.4816 100.991 28.7507 99.7366 28.7507C98.5334 28.7507 97.6125 28.469 96.9294 27.9504C96.2981 27.4435 95.989 26.7964 95.989 25.966V25.343C95.989 24.4663 96.3037 23.8278 96.9217 23.3643L96.928 23.3596L96.9341 23.3548C97.5729 22.8437 98.4874 22.5582 99.7366 22.5582C100.986 22.5582 101.9 22.8437 102.539 23.3548ZM120.95 52.355L120.954 52.3585C123.143 54.0298 126.036 54.8398 129.583 54.8398C133.093 54.8398 135.95 54.0293 138.102 52.3558L138.103 52.355C140.303 50.6349 141.41 48.3363 141.41 45.5048V44.8818C141.41 41.9841 140.329 39.663 138.16 37.9756C136.043 36.2986 133.164 35.4902 129.583 35.4902C125.997 35.4902 123.083 36.3194 120.894 38.0312C118.726 39.7173 117.643 42.0187 117.643 44.8818V45.5048C117.643 48.3363 118.75 50.6349 120.95 52.355ZM132.329 42.8936L132.339 42.9021L132.351 42.91C133.005 43.3775 133.33 44.0151 133.33 44.8818V45.5048C133.33 46.3716 133.004 47.0343 132.34 47.5411C131.7 48.0205 130.781 48.2896 129.526 48.2896C128.323 48.2896 127.402 48.0078 126.719 47.4893C126.088 46.9823 125.779 46.3352 125.779 45.5048V44.8818C125.779 44.0052 126.093 43.3667 126.711 42.9032L126.718 42.8985L126.724 42.8936C127.363 42.3825 128.277 42.097 129.526 42.097C130.776 42.097 131.69 42.3825 132.329 42.8936ZM126.921 16.3478H126.7L126.551 16.5119L93.8728 52.5313L93.7431 52.6743V52.8673V53.9999V54.4999H94.2431H102.285H102.506L102.655 54.3368L135.333 18.4872L135.463 18.3441V18.1504V16.8478V16.3478H134.963H126.921Z" fill="#252424" stroke="white"/>
</svg>
