<svg width="91" height="29" viewBox="0 0 91 29" fill="none" xmlns="http://www.w3.org/2000/svg">
<path d="M26.256 2.77255V1.77255H25.256H2.82031H1.82031V2.77255V7.49769V8.49769H2.82031H16.6525C14.297 11.1182 12.4012 13.7148 10.9758 16.2885L10.9745 16.2908C9.27024 19.3873 8.36551 22.2512 8.36551 24.8582V25.7332V26.7332H9.36551H15.2107H16.2107V25.7332V24.8582C16.2107 22.8416 16.9952 20.3716 18.7005 17.4152C20.4225 14.4703 22.8398 11.397 25.9708 8.19704L26.256 7.90553V7.49769V2.77255ZM28.8173 21.6594L28.8173 21.6594L28.821 21.665C29.9821 23.4195 31.6007 24.7717 33.6403 25.7285C35.6856 26.6881 38.0168 27.1532 40.6102 27.1532C43.1997 27.1532 45.518 26.7011 47.5402 25.7658L47.5451 25.7635C49.5863 24.8059 51.1963 23.4514 52.3351 21.6914L52.3387 21.6858C53.4779 19.8992 54.0356 17.8538 54.0356 15.5829V12.9579C54.0356 10.6857 53.4655 8.64849 52.2992 6.88294C51.1619 5.10251 49.5536 3.73635 47.5124 2.77832C45.4895 1.81786 43.1806 1.35254 40.6102 1.35254C38.0168 1.35254 35.6856 1.81774 33.6403 2.77725C31.5981 3.73535 29.9793 5.10081 28.8192 6.87855C27.6509 8.64511 27.0798 10.6839 27.0798 12.9579V15.5829C27.0798 17.8374 27.6527 19.8737 28.8173 21.6594ZM45.3074 9.50501L45.3074 9.50506L45.3164 9.51208C46.3001 10.2771 46.8204 11.3556 46.8204 12.8879V15.6879C46.8204 17.2558 46.3034 18.3273 45.3535 19.0621C44.3596 19.831 42.8264 20.2881 40.6102 20.2881C38.3732 20.2881 36.8139 19.832 35.7944 19.0602C34.8138 18.2953 34.295 17.2178 34.295 15.6879V12.8879C34.295 11.3556 34.8154 10.2771 35.799 9.51208L35.801 9.51054C36.8481 8.69185 38.3973 8.21768 40.5752 8.21768C42.7547 8.21768 44.2871 8.69248 45.3074 9.50501ZM56.9132 13.1856L56.9132 13.1857L56.9222 13.1926C58.4296 14.3437 60.3802 14.8679 62.6743 14.8679C64.9467 14.8679 66.8776 14.3428 68.3634 13.1872L68.3653 13.1856C69.8959 11.989 70.6745 10.366 70.6745 8.40772V8.02271C70.6745 6.03608 69.9213 4.39428 68.4016 3.21076C66.9327 2.04849 64.9841 1.52754 62.6743 1.52754C60.3557 1.52754 58.3892 2.06406 56.8796 3.24371C55.3619 4.42441 54.6041 6.05313 54.6041 8.02271V8.40772C54.6041 10.366 55.3826 11.989 56.9132 13.1856ZM63.9396 7.33353L63.9609 7.35056L63.9831 7.3664C64.1963 7.51867 64.2993 7.698 64.2993 8.02271V8.40772C64.2993 8.73255 64.1944 8.93634 63.9613 9.11499C63.7245 9.29131 63.3212 9.43778 62.6393 9.43778C62.0088 9.43778 61.6011 9.29249 61.3297 9.08949C61.1109 8.91114 61.0142 8.71177 61.0142 8.40772V8.02271C61.0142 7.67823 61.1218 7.49695 61.3142 7.35267L61.3267 7.34329L61.3389 7.33353C61.573 7.14622 61.9671 6.99265 62.6393 6.99265C63.3115 6.99265 63.7055 7.14622 63.9396 7.33353ZM75.3237 25.261L75.3237 25.2611L75.3327 25.268C76.8401 26.419 78.7907 26.9432 81.0848 26.9432C83.3573 26.9432 85.2881 26.4182 86.7739 25.2626L86.7759 25.261C88.3064 24.0644 89.085 22.4414 89.085 20.4831V20.0981C89.085 18.1114 88.3318 16.4696 86.8121 15.286C85.3431 14.1238 83.3946 13.6029 81.0848 13.6029C78.7665 13.6029 76.8003 14.1393 75.2907 15.3186C73.7726 16.4993 73.0146 18.1282 73.0146 20.0981V20.4831C73.0146 22.4414 73.7932 24.0644 75.3237 25.261ZM82.3502 19.4089L82.3715 19.4259L82.3936 19.4418C82.6068 19.594 82.7099 19.7734 82.7099 20.0981V20.4831C82.7099 20.8078 82.605 21.0116 82.372 21.1903C82.1352 21.3666 81.7318 21.5131 81.0498 21.5131C80.4194 21.5131 80.0117 21.3679 79.7403 21.1649C79.5215 20.9865 79.4247 20.7871 79.4247 20.4831V20.0981C79.4247 19.7536 79.5324 19.5723 79.7248 19.428L79.7373 19.4186L79.7495 19.4089C79.9836 19.2216 80.3776 19.068 81.0498 19.068C81.722 19.068 82.116 19.2216 82.3502 19.4089ZM79.4398 1.77255H78.9968L78.6991 2.10063L58.5035 24.3613L58.2442 24.6472V25.0332V25.7332V26.7332H59.2442H64.2143H64.6559L64.9534 26.4069L85.1489 4.25124L85.4099 3.96495V3.57758V2.77255V1.77255H84.4099H79.4398Z" fill="#252424" stroke="#41C53C" stroke-width="2"/>
</svg>
