<svg width="25" height="26" viewBox="0 0 25 26" fill="none" xmlns="http://www.w3.org/2000/svg">
<path d="M24.4761 18.8104L24.4763 18.8094C24.5811 18.3594 24.3213 17.8344 23.8602 17.583L18.5816 15.3198L18.5799 15.3191C18.1623 15.1382 17.6703 15.2609 17.387 15.6124L17.3845 15.6155L17.3845 15.6155L15.2319 18.2432L14.9807 18.55L14.6247 18.3752C11.1442 16.6658 8.31559 13.8366 6.60748 10.3563L6.43107 9.99689L6.74325 9.74618L9.3706 7.63618C9.72183 7.3482 9.84213 6.85969 9.66417 6.44063C9.66409 6.44042 9.664 6.44022 9.66391 6.44001L7.39367 1.14403C7.19041 0.682907 6.69618 0.436112 6.21797 0.546956L6.21747 0.547072L1.29513 1.68265L1.29392 1.68293L1.29392 1.68293C0.826719 1.7895 0.5 2.19869 0.5 2.6827C0.5 14.7295 10.2967 24.528 22.3405 24.529L24.4761 18.8104ZM24.4761 18.8104L23.3407 23.7337L23.3406 23.7344M24.4761 18.8104L23.3406 23.7344M23.3406 23.7344C23.2333 24.2025 22.8244 24.529 22.3405 24.529L23.3406 23.7344Z" stroke="white"/>
</svg>
