<svg width="140" height="142" viewBox="0 0 140 142" fill="none" xmlns="http://www.w3.org/2000/svg">
<path d="M45.1599 64.8944C45.1599 67.1035 43.369 68.8944 41.1599 68.8944H17.548C15.3388 68.8944 13.548 67.1035 13.548 64.8944V41.167C13.548 38.9578 15.3388 37.167 17.548 37.167H41.1599C43.369 37.167 45.1599 38.9579 45.1599 41.167V64.8944Z" fill="#41C53C"/>
<path d="M45.1599 101.154C45.1599 103.363 43.369 105.154 41.1599 105.154H17.548C15.3388 105.154 13.548 103.363 13.548 101.154V77.4269C13.548 75.2177 15.3388 73.4269 17.548 73.4269H41.1599C43.369 73.4269 45.1599 75.2177 45.1599 77.4269V101.154Z" fill="#41C53C"/>
<path d="M133.221 0.907104H6.77397C3.03926 0.907104 0 3.95747 0 7.70583V107.42C0 111.169 3.03926 114.219 6.77397 114.219H67.7397V115.466C67.7397 117.9 68.3088 120.34 69.3881 122.52L74.5137 132.879V141.312L115.158 141.419V133.104L118.77 128.27C120.809 125.541 121.932 122.162 121.932 118.752V114.219H133.221C136.956 114.219 139.995 111.169 139.995 107.42V7.70583C139.995 3.95747 136.956 0.907104 133.221 0.907104ZM6.77397 5.43959H133.221C134.466 5.43959 135.479 6.45713 135.479 7.70583V28.102H4.51598V7.70583C4.51598 6.45713 5.52982 5.43959 6.77397 5.43959ZM88.0617 55.2969C84.327 55.2969 81.2877 58.3473 81.2877 62.0956V64.3619H54.1918V41.6995H126.448V64.3619H94.8356V62.0956C94.8356 58.3473 91.7964 55.2969 88.0617 55.2969ZM81.2877 92.1392C78.2597 88.9415 73.9628 86.9291 69.1374 86.9291C65.8792 86.9291 63.226 89.5897 63.2238 92.8621C63.2238 93.7777 63.4405 94.6955 63.847 95.5182L66.3917 100.622H54.1918V77.9593H81.2877V92.1392ZM117.416 118.752C117.416 121.188 116.614 123.604 115.158 125.55L110.642 131.594V136.877L79.0297 136.791V131.817L73.4321 120.503C72.6622 118.947 72.2557 117.206 72.2557 115.466V106.156C72.2557 103.604 71.6551 101.05 70.5193 98.7702L67.8888 93.4899C67.7917 93.2973 67.7397 93.0774 67.7397 92.8621C67.7397 92.0894 68.3675 91.4616 69.352 91.4616C75.934 91.4616 81.2877 96.8371 81.2877 103.443V107.325V111.858H85.8037V107.325V103.443V62.0956C85.8037 60.8469 86.8175 59.8294 88.0617 59.8294C89.3058 59.8294 90.3197 60.8469 90.3197 62.0956V89.2905V98.3555H94.8356V89.2905C94.8356 88.0418 95.8495 87.0243 97.0936 87.0243C98.3378 87.0243 99.3516 88.0418 99.3516 89.2905V98.3555H103.868V89.2905C103.868 88.0418 104.881 87.0243 106.126 87.0243C107.37 87.0243 108.384 88.0418 108.384 89.2905V93.823V98.3555H112.9V93.823C112.9 92.5743 113.913 91.5568 115.158 91.5568C116.402 91.5568 117.416 92.5743 117.416 93.823V118.752ZM115.158 87.0243C114.266 87.0243 113.419 87.2079 112.638 87.5229C111.859 84.6334 109.248 82.4918 106.126 82.4918C104.385 82.4918 102.811 83.174 101.61 84.2595C100.408 83.1717 98.8345 82.4918 97.0936 82.4918C96.2988 82.4918 95.5447 82.655 94.8356 82.9088V77.9593H126.448V100.622H121.932V93.823C121.932 90.0747 118.892 87.0243 115.158 87.0243ZM133.221 109.687H121.932V105.154H130.964V73.4268H94.8356V68.8944H130.964V37.167H49.6758V68.8944H81.2877V73.4268H49.6758V105.154H67.681C67.7104 105.487 67.7397 105.823 67.7397 106.156V109.687H6.77397C5.52982 109.687 4.51598 108.669 4.51598 107.42V32.6345H135.479V107.42C135.479 108.669 134.466 109.687 133.221 109.687Z" fill="black"/>
<path d="M22.5799 9.97205H9.03198V23.5695H22.5799V9.97205ZM18.0639 19.037H13.548V14.5045H18.0639V19.037Z" fill="black"/>
<path d="M40.6439 9.97205H27.0959V23.5695H40.6439V9.97205ZM36.1279 19.037H31.6119V14.5045H36.1279V19.037Z" fill="black"/>
<path d="M58.7077 9.97205H45.1598V23.5695H58.7077V9.97205ZM54.1918 19.037H49.6758V14.5045H54.1918V19.037Z" fill="black"/>
<path d="M58.7078 46.2319H63.2237V50.7644H58.7078V46.2319Z" fill="black"/>
<path d="M67.7397 46.2319H121.932V50.7644H67.7397V46.2319Z" fill="black"/>
<path d="M28.5558 52.8937C27.7505 53.702 26.4416 53.702 25.6362 52.8937C24.8309 52.0854 23.522 52.0854 22.7167 52.8937L22.5742 53.0367C21.6948 53.9193 21.6948 55.3469 22.5742 56.2295L24.2624 57.9239C25.8257 59.4928 28.3663 59.4928 29.9296 57.9239L38.3918 49.4307C39.2712 48.5481 39.2712 47.1206 38.3918 46.238C37.5079 45.3508 36.0713 45.3508 35.1874 46.238L28.5558 52.8937Z" fill="black"/>
<path d="M27.096 90.6185L24.1764 87.6883L20.9836 90.8927L27.096 97.0274L39.9824 84.094L36.7896 80.8895L27.096 90.6185Z" fill="black"/>
</svg>
